name Walk4.mot
datacolumns 19
datarows 30
range 1.04100000 1.07000000
endheader

                time	   L_ground_force_vx	   L_ground_force_vy	   L_ground_force_vz	   L_ground_force_px	   L_ground_force_py	   L_ground_force_pz	   R_ground_force_vx	   R_ground_force_vy	   R_ground_force_vz	   R_ground_force_px	   R_ground_force_py	   R_ground_force_pz	   L_ground_torque_x	   L_ground_torque_y	   L_ground_torque_z	   R_ground_torque_x	   R_ground_torque_y	   R_ground_torque_z	
          1.04100000	         25.80194617	        737.36872165	         37.48967619	         -0.35837151	          0.00000000	         -0.04040809	         -0.00641060	          0.17201182	          0.00162296	          0.00011022	          0.00000000	          0.00009498	          0.00000000	         -1.21553302	          0.00000000	          0.00000000	         -0.00018863	          0.00000000	
          1.04200000	         26.01854042	        739.08190740	         37.68991336	         -0.35773949	          0.00000000	         -0.04040681	         -0.00747937	          0.18232470	          0.00177416	          0.00011434	          0.00000000	          0.00009846	          0.00000000	         -1.22396646	          0.00000000	          0.00000000	         -0.00013155	          0.00000000	
          1.04300000	         26.23779212	        740.79651210	         37.88996881	         -0.35710859	          0.00000000	         -0.04040521	         -0.00861656	          0.19284291	          0.00193209	          0.00011836	          0.00000000	          0.00010185	          0.00000000	         -1.23219640	          0.00000000	          0.00000000	         -0.00006862	          0.00000000	
          1.04400000	         26.45995053	        742.51244296	         38.08959054	         -0.35647901	          0.00000000	         -0.04040329	         -0.00982385	          0.20354211	          0.00209672	          0.00012226	          0.00000000	          0.00010514	          0.00000000	         -1.24023281	          0.00000000	          0.00000000	          0.00000043	          0.00000000	
          1.04500000	         26.68526438	        744.22961681	         38.28853842	         -0.35585096	          0.00000000	         -0.04040103	         -0.01110275	          0.21439492	          0.00226799	          0.00012603	          0.00000000	          0.00010830	          0.00000000	         -1.24808443	          0.00000000	          0.00000000	          0.00007590	          0.00000000	
          1.04600000	         26.91398279	        745.94796010	         38.48658483	         -0.35522463	          0.00000000	         -0.04039841	         -0.01245463	          0.22537080	          0.00244580	          0.00012962	          0.00000000	          0.00011131	          0.00000000	         -1.25575870	          0.00000000	          0.00000000	          0.00015808	          0.00000000	
          1.04700000	         27.14635608	        747.66740745	         38.68351489	         -0.35460023	          0.00000000	         -0.04039542	         -0.01388071	          0.23643584	          0.00263004	          0.00013301	          0.00000000	          0.00011414	          0.00000000	         -1.26326186	          0.00000000	          0.00000000	          0.00024723	          0.00000000	
          1.04800000	         27.38263650	        749.38789920	         38.87912621	         -0.35397795	          0.00000000	         -0.04039202	         -0.01538198	          0.24755265	          0.00282054	          0.00013617	          0.00000000	          0.00011675	          0.00000000	         -1.27059923	          0.00000000	          0.00000000	          0.00034365	          0.00000000	
          1.04900000	         27.62307859	        751.10937839	         39.07322867	         -0.35335800	          0.00000000	         -0.04038821	         -0.01695922	          0.25868012	          0.00301709	          0.00013905	          0.00000000	          0.00011913	          0.00000000	         -1.27777551	          0.00000000	          0.00000000	          0.00044760	          0.00000000	
          1.05000000	         27.86793903	        752.83178803	         39.26564408	         -0.35274057	          0.00000000	         -0.04038394	         -0.01861300	          0.26977329	          0.00321944	          0.00014164	          0.00000000	          0.00012124	          0.00000000	         -1.28479521	          0.00000000	          0.00000000	          0.00055937	          0.00000000	
          1.05100000	         28.11747603	        754.55506923	         39.45620622	         -0.35212585	          0.00000000	         -0.04037921	         -0.02034357	          0.28078314	          0.00342730	          0.00014387	          0.00000000	          0.00012305	          0.00000000	         -1.29166300	          0.00000000	          0.00000000	          0.00067922	          0.00000000	
          1.05200000	         28.37194809	        756.27916100	         39.64476107	         -0.35151404	          0.00000000	         -0.04037398	         -0.02215095	          0.29165649	          0.00364032	          0.00014572	          0.00000000	          0.00012451	          0.00000000	         -1.29838391	          0.00000000	          0.00000000	          0.00080740	          0.00000000	
          1.05300000	         28.63161244	        758.00400187	         39.83116734	         -0.35090533	          0.00000000	         -0.04036824	         -0.02403480	          0.30233572	          0.00385810	          0.00014715	          0.00000000	          0.00012559	          0.00000000	         -1.30496345	          0.00000000	          0.00000000	          0.00094415	          0.00000000	
          1.05400000	         28.89672348	        759.72953284	         40.01529691	         -0.35029992	          0.00000000	         -0.04036197	         -0.02599444	          0.31275870	          0.00408019	          0.00014809	          0.00000000	          0.00012626	          0.00000000	         -1.31140730	          0.00000000	          0.00000000	          0.00108971	          0.00000000	
          1.05500000	         29.16753139	        761.45570091	         40.19703523	         -0.34969801	          0.00000000	         -0.04035514	         -0.02802882	          0.32285857	          0.00430606	          0.00014851	          0.00000000	          0.00012647	          0.00000000	         -1.31772098	          0.00000000	          0.00000000	          0.00124430	          0.00000000	
          1.05600000	         29.44428136	        763.18246182	         40.37628137	         -0.34909977	          0.00000000	         -0.04034776	         -0.03013649	          0.33256359	          0.00453514	          0.00014836	          0.00000000	          0.00012617	          0.00000000	         -1.32390932	          0.00000000	          0.00000000	          0.00140812	          0.00000000	
          1.05700000	         29.72721317	        764.90978143	         40.55294785	         -0.34850540	          0.00000000	         -0.04033979	         -0.03231556	          0.34179700	          0.00476678	          0.00014758	          0.00000000	          0.00012533	          0.00000000	         -1.32997613	          0.00000000	          0.00000000	          0.00158134	          0.00000000	
          1.05800000	         30.01656142	        766.63763549	         40.72696030	         -0.34791506	          0.00000000	         -0.04033122	         -0.03456366	          0.35047683	          0.00500025	          0.00014612	          0.00000000	          0.00012389	          0.00000000	         -1.33592401	          0.00000000	          0.00000000	          0.00176413	          0.00000000	
          1.05900000	         30.31255586	        768.36600819	         40.89825690	         -0.34732893	          0.00000000	         -0.04032204	         -0.03687792	          0.35851580	          0.00523477	          0.00014392	          0.00000000	          0.00012180	          0.00000000	         -1.34175455	          0.00000000	          0.00000000	          0.00195661	          0.00000000	
          1.06000000	         30.61542191	        770.09489058	         41.06678771	         -0.34674717	          0.00000000	         -0.04031221	         -0.03925493	          0.36582115	          0.00546946	          0.00014092	          0.00000000	          0.00011902	          0.00000000	         -1.34746883	          0.00000000	          0.00000000	          0.00215891	          0.00000000	
          1.06100000	         30.92538073	        771.82427963	         41.23251398	         -0.34616995	          0.00000000	         -0.04030173	         -0.04169070	          0.37229454	          0.00570338	          0.00013706	          0.00000000	          0.00011549	          0.00000000	         -1.35306790	          0.00000000	          0.00000000	          0.00237108	          0.00000000	
          1.06200000	         31.24264891	        773.55417811	         41.39540720	         -0.34559741	          0.00000000	         -0.04029056	         -0.04418064	          0.37783193	          0.00593547	          0.00013227	          0.00000000	          0.00011115	          0.00000000	         -1.35855331	          0.00000000	          0.00000000	          0.00259318	          0.00000000	
          1.06300000	         31.56743768	        775.28459506	         41.55544807	         -0.34502970	          0.00000000	         -0.04027866	         -0.04671949	          0.38232347	          0.00616462	          0.00012650	          0.00000000	          0.00010595	          0.00000000	         -1.36392730	          0.00000000	          0.00000000	          0.00282521	          0.00000000	
          1.06400000	         31.89995185	        777.01554589	         41.71262541	         -0.34446698	          0.00000000	         -0.04026600	         -0.04930132	          0.38565343	          0.00638961	          0.00011966	          0.00000000	          0.00009983	          0.00000000	         -1.36919278	          0.00000000	          0.00000000	          0.00306713	          0.00000000	
          1.06500000	         32.24038879	        778.74705200	         41.86693500	         -0.34390937	          0.00000000	         -0.04025256	         -0.05191945	          0.38770011	          0.00660911	          0.00011170	          0.00000000	          0.00009273	          0.00000000	         -1.37435291	          0.00000000	          0.00000000	          0.00331887	          0.00000000	
          1.06600000	         32.58893766	        780.47914039	         42.01837842	         -0.34335704	          0.00000000	         -0.04023829	         -0.05456646	          0.38833581	          0.00682171	          0.00010253	          0.00000000	          0.00008459	          0.00000000	         -1.37941063	          0.00000000	          0.00000000	          0.00358029	          0.00000000	
          1.06700000	         32.94577939	        782.21184355	         42.16696193	         -0.34281011	          0.00000000	         -0.04022315	         -0.05723408	          0.38742679	          0.00702590	          0.00009209	          0.00000000	          0.00007533	          0.00000000	         -1.38436805	          0.00000000	          0.00000000	          0.00385122	          0.00000000	
          1.06800000	         33.31108727	        783.94519964	         42.31269531	         -0.34226872	          0.00000000	         -0.04020714	         -0.05991322	          0.38483326	          0.00722005	          0.00008030	          0.00000000	          0.00006491	          0.00000000	         -1.38922602	          0.00000000	          0.00000000	          0.00413142	          0.00000000	
          1.06900000	         33.68502815	        785.67925241	         42.45559042	         -0.34173302	          0.00000000	         -0.04019020	         -0.06259388	          0.38040940	          0.00740242	          0.00006708	          0.00000000	          0.00005326	          0.00000000	         -1.39398381	          0.00000000	          0.00000000	          0.00442059	          0.00000000	
          1.07000000	         34.06776387	        787.41405024	         42.59565973	         -0.34120313	          0.00000000	         -0.04017233	         -0.06526513	          0.37400340	          0.00757116	          0.00005236	          0.00000000	          0.00004029	          0.00000000	         -1.39863892	          0.00000000	          0.00000000	          0.00471838	          0.00000000	
